<svg xmlns="http://www.w3.org/2000/svg" width="256" height="256"><path fill-opacity=".016" d="M0 128.004v128.004l128.25-.254 128.25-.254.254-127.75L257.008 0H0v128.004m.485.496c0 70.4.119 99.053.265 63.672.146-35.38.146-92.98 0-128C.604 29.153.485 58.1.485 128.5" fill="#1976D2" fill-rule="evenodd"/><path fill-opacity=".135" d="M63.223 1.557C61.079 3.058 61 3.698 61 19.557V36h-4.757c-6.81 0-11.134 1.502-14.938 5.189-3.731 3.616-5.291 8.051-5.299 15.061L36 61H19.557c-15.859 0-16.499.079-18 2.223-2.243 3.201-1.929 5.34 1.138 7.751 2.521 1.984 3.677 2.101 18.001 1.823l15.307-.297-.002 9.75L36 92H19.557c-15.859 0-16.499.079-18 2.223-2.05 2.925-1.967 5.096.272 7.122 1.543 1.396 4.356 1.655 18 1.655H36v20H19.655c-14.565 0-16.525.199-18 1.829-2.066 2.282-2.091 4.103-.098 6.948 1.501 2.144 2.141 2.223 18 2.223H36l.001 9.75.002 9.75-15.307-.297c-14.324-.278-15.48-.161-18.001 1.823-3.067 2.411-3.381 4.55-1.138 7.751 1.501 2.144 2.141 2.223 18 2.223H36l.001 9.75.002 9.75-15.634-.3c-14.992-.288-15.73-.209-18.001 1.924C-.526 188.843-.643 191.357 2 194c1.832 1.832 3.333 2 17.866 2h15.865l.494 6.898c.825 11.537 6.34 17.052 17.877 17.877l6.898.494v16.165c0 17.722.258 18.566 5.677 18.566 5.716 0 6.472-2.456 6.124-19.904l-.301-15.099 9.75.002L92 221v16.3c0 17.77.273 18.7 5.5 18.7s5.5-.93 5.5-18.7V221h20v16.3c0 17.77.273 18.7 5.5 18.7s5.5-.93 5.5-18.7V221l9.75-.001 9.75-.002-.262 14.752c-.302 17.067.395 19.566 5.6 20.069 5.877.568 6.162-.286 6.162-18.44V221h19v15.277c0 17.582.708 19.723 6.522 19.723 2.346 0 3.73-.603 4.443-1.934.586-1.096 1.035-8.683 1.035-17.5V221h5.032c5.315 0 11.113-1.938 14.323-4.788 3.144-2.792 5.599-9.326 5.623-14.962L221 196h15.809c17.275 0 18.757-.413 19.749-5.5.5-2.565.153-3.254-2.391-4.75-2.479-1.458-5.495-1.75-18.071-1.75H221v-19h16.378c17.759 0 18.092-.099 19.209-5.687.539-2.692.234-3.17-3.003-4.706-2.992-1.42-6.058-1.658-18.095-1.408l-14.492.301.001-9.75L221 134h16.378c17.54 0 17.853-.087 19.163-5.307 1.248-4.974-.97-5.625-19.291-5.661L221 123v-20h16.443c15.859 0 16.499-.079 18-2.223 2.05-2.925 1.967-5.096-.272-7.122-1.543-1.396-4.356-1.655-18-1.655H221l-.001-9.75-.002-9.75 15.099.301c12.375.247 15.529.019 17.486-1.263 3.273-2.145 4.138-6.085 1.882-8.578-1.623-1.793-3.155-1.96-17.985-1.96h-16.21l-.494-6.898c-.825-11.537-6.34-17.052-17.877-17.877L196 35.731V19.866c0-14.533-.168-16.034-2-17.866-2.561-2.561-5.456-2.544-8.047.047-1.92 1.92-2.029 3.044-1.75 18.002l.297 15.954-9.75-.002L165 36V19.557c0-15.859-.079-16.499-2.223-18-3.201-2.243-5.34-1.929-7.751 1.138-1.984 2.521-2.101 3.677-1.823 18.001l.297 15.307-9.75-.002L134 36V19.557c0-15.859-.079-16.499-2.223-18-2.925-2.05-5.096-1.967-7.122.272-1.396 1.543-1.655 4.356-1.655 18V36h-20V19.655c0-14.565-.199-16.525-1.829-18-2.282-2.066-4.103-2.091-6.948-.098C92.079 3.058 92 3.698 92 19.557V36l-9.75.001-9.75.002.297-15.307c.278-14.324.161-15.48-1.823-18.001-2.411-3.067-4.55-3.381-7.751-1.138M49.2 49.2c-1.738 1.738-1.738 156.862 0 158.6.913.913 19.906 1.2 79.378 1.2 71.493 0 78.294-.141 79.55-1.653 1.131-1.363 1.419-15.077 1.64-78.148.237-67.525.088-76.77-1.273-78.846L206.954 48h-78.277c-59.549 0-78.564.287-79.477 1.2m15.201 15.308l-2.507 2.507.303 22.575c.282 20.999.438 22.673 2.244 23.992 2.665 1.947 5.924 1.777 7.904-.411 1.416-1.564 1.655-4.529 1.655-20.5V74h19c17.667 0 19.14-.14 21-2 2.728-2.728 2.51-5.454-.635-7.927C110.882 62.119 109.472 62 88.82 62H66.909l-2.508 2.508M147 62.666c-4.05 1.523-5.254 6.89-2.171 9.679 1.56 1.412 4.495 1.655 20 1.655H183v18.845c0 16.987.18 19.008 1.829 20.5 2.1 1.9 4.465 2.103 7.237.62 1.829-.979 1.934-2.329 1.934-24.878 0-20.942-.201-24.009-1.651-25.215-1.266-1.052-6.568-1.418-22.75-1.571-11.604-.109-21.774.055-22.599.365M.158 67c0 1.375.227 1.938.504 1.25.278-.687.278-1.812 0-2.5-.277-.687-.504-.125-.504 1.25M84.5 95.054c-7.006 3.978-6.503 6.119 1.75 7.438 3.562.569 3.75.787 3.75 4.359 0 2.428.875 4.946 2.467 7.105 1.631 2.21 2.692 5.327 3.129 9.194.545 4.813.994 5.85 2.533 5.85 1.493 0 1.874-.758 1.885-3.75.028-7.705.475-8.185 7.505-8.065 4.532.077 6.174.452 5.836 1.332-.596 1.553 2.758 2.918 3.645 1.483 1.95-3.155 5.87 3.569 4.366 7.489-.399 1.039.048 1.511 1.43 1.511 1.658 0 2.104-.835 2.543-4.75.292-2.612.954-6.775 1.471-9.25l.94-4.5.125 3.75c.069 2.063.575 3.75 1.125 3.75.588 0 1-3.5 1-8.5 0-12.08-.522-12.5-15.557-12.5-12.077 0-19.583-1.259-21.535-3.611-1.545-1.861-2.548-1.663-8.408 1.665M.158 98c0 1.375.227 1.938.504 1.25.278-.687.278-1.812 0-2.5-.277-.687-.504-.125-.504 1.25m161.132 16.965c-3.498 2.132-7.29 8.552-7.29 12.34 0 1.312-.9 3.2-2 4.195-1.97 1.783-2 1.747-2-2.477 0-4.888-3.249-11.027-5.832-11.016-.917.004-2.68 1.494-3.918 3.312-2.969 4.361-3.051 11.854-.183 16.56l2.06 3.379-2.813 2.94-2.814 2.941-.694-4.756c-.734-5.035-3.497-9.682-6.056-10.186-2.138-.421-5.851 5.136-6.458 9.666-.349 2.598.193 5.393 1.744 8.999l2.25 5.23-2.643 2.759c-1.454 1.517-2.643 3.071-2.643 3.454 0 1.485 2.51.58 4.994-1.8l2.604-2.494 3.913 1.994c5.29 2.697 11.32 2.583 15.591-.295 1.869-1.259 3.398-3.123 3.398-4.142 0-2.637-4.458-5.619-9.391-6.28l-4.217-.566 2.632-2.747 2.632-2.747 4.461 2.494c3.704 2.069 5.231 2.378 8.986 1.815 5.81-.871 11.487-5.519 9.567-7.832-1.933-2.329-7.602-4.705-11.226-4.705-3.191 0-3.219-.039-1.444-2 .995-1.1 2.888-2 4.205-2 6.208 0 13.295-7.625 13.295-14.304 0-3.605-.092-3.696-3.75-3.692-2.062.002-5.194.884-6.96 1.961m2.091 2.197c-2.139 1.036-6.381 7.573-6.381 9.833 0 3.105 9.015-1.672 10.932-5.792 2.267-4.875.468-6.473-4.551-4.041M129 120c0 .55.927 1 2.059 1 1.132 0 1.781-.45 1.441-1-.34-.55-1.266-1-2.059-1-.793 0-1.441.45-1.441 1m12.922 4.146c-1.353 2.527-.714 11.462.937 13.113 1.915 1.915 3.428-.673 3.93-6.722.618-7.453-2.27-11.244-4.867-6.391M.158 128c0 1.375.227 1.938.504 1.25.278-.687.278-1.812 0-2.5-.277-.687-.504-.125-.504 1.25m127.456 10.401c-2.021 4.26-2.016 5.553.042 10.698l1.656 4.139 1.822-2.369c2.234-2.906 2.394-8.948.34-12.919-.839-1.622-1.688-2.95-1.886-2.95-.198 0-1.086 1.531-1.974 3.401m21.636.819c-2.792 1.347-2.814 1.947-.13 3.623 3.859 2.41 14.88.986 14.88-1.923 0-.329-1.146-1.121-2.547-1.759-3.131-1.427-9.182-1.397-12.203.059m-85.378 4.434c-1.998 2.408-1.998 46.284 0 48.692C65.079 193.8 68.121 194 88.967 194c21.713 0 23.863-.155 25.378-1.829 2.066-2.282 2.091-4.103.098-6.948-1.518-2.168-2.041-2.223-21-2.223H74v-18.845c0-16.987-.18-19.008-1.829-20.5-2.347-2.124-6.536-2.125-8.299-.001m120.783.175c-1.416 1.564-1.655 4.529-1.655 20.5V183h-18.345c-16.502 0-18.511.184-20 1.829-2.086 2.304-2.122 5.562-.084 7.6 1.337 1.336 4.971 1.571 24.3 1.571 16.345 0 23.066-.337 23.929-1.2.864-.864 1.2-7.695 1.2-24.429 0-19.783-.233-23.461-1.571-24.8-2.108-2.107-5.743-1.987-7.774.258m-50.155 9.885l-3 1.634 4.368 1.915c4.664 2.045 9.286 1.807 12.649-.652 1.76-1.287 1.689-1.453-1.277-2.987-3.964-2.05-8.875-2.015-12.74.09M.158 159c0 1.375.227 1.938.504 1.25.278-.687.278-1.812 0-2.5-.277-.687-.504-.125-.504 1.25m0 31c0 1.375.227 1.938.504 1.25.278-.687.278-1.812 0-2.5-.277-.687-.504-.125-.504 1.25" fill="#1976D2" fill-rule="evenodd"/><path fill-opacity=".553" d="M62.035 2.934C61.446 4.036 61 11.738 61 20.825v15.956l-7.254.367C41.899 37.746 37 42.94 37 54.901V61H20.934c-9.162 0-16.897.445-18 1.035C.717 63.222.246 68.846 2.2 70.8c.838.838 6.267 1.2 18 1.2H37v20H20.934c-9.162 0-16.897.445-18 1.035-2.675 1.432-2.675 7.498 0 8.93 1.103.59 8.838 1.035 18 1.035H37v20H20.934c-9.162 0-16.897.445-18 1.035-2.675 1.432-2.675 7.498 0 8.93 1.103.59 8.838 1.035 18 1.035H37v20H20.2c-11.733 0-17.162.362-18 1.2-1.954 1.954-1.483 7.578.734 8.765 1.103.59 8.838 1.035 18 1.035H37v20H20.2c-11.733 0-17.162.362-18 1.2-1.954 1.954-1.483 7.578.734 8.765 1.102.589 8.804 1.035 17.891 1.035h15.956l.367 7.254C37.746 215.101 42.94 220 54.901 220H61v16.345c0 14.565.199 16.525 1.829 18 2.507 2.269 6.852 2.12 8.136-.279.59-1.103 1.035-8.838 1.035-18V220h20v16.066c0 9.162.445 16.897 1.035 18 1.432 2.675 7.498 2.675 8.93 0 .59-1.103 1.035-8.838 1.035-18V220h20v16.066c0 9.162.445 16.897 1.035 18 1.432 2.675 7.498 2.675 8.93 0 .59-1.103 1.035-8.838 1.035-18V220h20v16.066c0 9.162.445 16.897 1.035 18 1.275 2.381 6.164 2.592 8.394.363 1.301-1.301 1.571-4.399 1.571-18V220h20v16.8c0 18.092.297 19.2 5.143 19.2 5.09 0 5.857-2.648 5.857-20.223V220h6.114c11.583 0 17.886-6.303 17.886-17.886V196h15.777c17.575 0 20.223-.767 20.223-5.857 0-4.846-1.108-5.143-19.2-5.143H220v-20h16.429c13.601 0 16.699-.27 18-1.571 2.229-2.23 2.018-7.119-.363-8.394-1.103-.59-8.838-1.035-18-1.035H220v-20h16.066c9.162 0 16.897-.445 18-1.035 2.675-1.432 2.675-7.498 0-8.93-1.103-.59-8.838-1.035-18-1.035H220v-20h16.066c9.162 0 16.897-.445 18-1.035 2.675-1.432 2.675-7.498 0-8.93-1.103-.59-8.838-1.035-18-1.035H220V72h16.066c9.162 0 16.897-.445 18-1.035 2.49-1.333 2.55-6.097.105-8.31-1.542-1.395-4.348-1.655-17.89-1.655h-16.062l-.367-7.254C219.254 41.899 214.06 37 202.099 37H196V20.934c0-9.162-.445-16.897-1.035-18C193.778.717 188.154.246 186.2 2.2c-.838.838-1.2 6.267-1.2 18V37h-20V20.934c0-9.162-.445-16.897-1.035-18C162.778.717 157.154.246 155.2 2.2c-.838.838-1.2 6.267-1.2 18V37h-20V20.934c0-9.162-.445-16.897-1.035-18C132.25 1.599 130.867 1 128.5 1s-3.75.599-4.465 1.934c-.59 1.103-1.035 8.838-1.035 18V37h-20V20.934c0-9.162-.445-16.897-1.035-18-1.432-2.675-7.498-2.675-8.93 0-.59 1.103-1.035 8.838-1.035 18V37H72V20.2c0-11.733-.362-17.162-1.2-18-1.954-1.954-7.578-1.483-8.765.734M49.2 49.2c-1.738 1.738-1.738 156.862 0 158.6.913.913 19.906 1.2 79.378 1.2 71.493 0 78.294-.141 79.55-1.653 1.131-1.364 1.419-15.136 1.64-78.532.183-52.433-.067-77.504-.785-78.847-1.034-1.932-2.5-1.968-79.818-1.968-59.928 0-79.052.287-79.965 1.2m15.455 15.629C63.218 66.417 63 69.635 63 89.306v22.648l2.365 1.55c3.025 1.982 7.103.615 7.985-2.677.342-1.28.629-10.09.636-19.577L74 74h18.277C112.554 74 115 73.369 115 68.143c0-5.006-.682-5.143-25.545-5.143-21.153 0-23.287.157-24.8 1.829m79.881.131c-2.372 2.621-1.309 6.796 2.057 8.075 1.395.531 10.158.965 19.472.965H183l.014 17.25c.007 9.487.294 18.297.636 19.577.882 3.292 4.96 4.659 7.985 2.677l2.365-1.55V89.132c0-20.84-.159-22.966-1.829-24.477C190.586 63.22 187.409 63 168.326 63c-20.595 0-22.13.126-23.79 1.96M84.5 95.556c-5.288 3.13-5.082 4.727.75 5.793 4.474.817 4.75 1.05 4.752 4.009 0 1.728.869 4.717 1.93 6.642 3.366 6.108 3.884 7.568 4.256 12.009.537 6.414 2.522 6.164 3.344-.422.38-3.04 1.203-5.903 1.829-6.363 1.856-1.362 12.866-.259 12.294 1.231-.341.89.422 1.157 2.581.906 4.162-.485 5.764 1.139 5.764 5.845 0 5.913 2.345 4.261 3.245-2.287.41-2.98 1.141-7.444 1.625-9.919l.88-4.5.125 3.691c.069 2.03.625 4 1.237 4.378.791.489 1.005-1.645.744-7.411-.512-11.277-.561-11.311-16.487-11.503-11.133-.134-13.485-.459-17.435-2.405-5.533-2.727-6.347-2.705-11.434.306m77.741 19.439c-3.748 2.285-6.967 7.086-7.837 11.69-.331 1.751-1.457 3.958-2.503 4.905-1.835 1.661-1.901 1.592-1.901-1.985 0-3.99-1.883-8.433-4.491-10.598-1.397-1.159-1.98-.99-4.176 1.205-3.645 3.645-4.198 10.044-1.414 16.339l2.146 4.851-3.416 3.416c-3.412 3.412-3.416 3.413-2.91.765.583-3.05-2.104-10.811-4.404-12.72-1.324-1.099-1.997-.805-4.448 1.937-2.436 2.726-2.887 4.085-2.887 8.692 0 3.675.646 6.522 1.977 8.71l1.977 3.251-3.159 3.258c-4.196 4.329-2.718 5.576 1.623 1.369l3.387-3.284 2.919 2.158c6.935 5.127 23.986.222 19.214-5.528-1.893-2.282-9.626-4.719-12.645-3.986l-2.793.678 3.609-3.651 3.609-3.652 4.317 2.203c5.798 2.958 13.015 2.387 16.724-1.322 2.221-2.221 2.393-2.808 1.234-4.205-2.365-2.849-7.1-4.691-11.083-4.311l-3.832.365 2.025-2.155c1.114-1.185 3.761-2.432 5.883-2.772 6.786-1.085 13.014-8.057 13.014-14.568 0-2.775-.293-3.05-3.25-3.046-1.787.002-4.717.898-6.509 1.991m2.029 1.488c-3.527 1.533-7.26 6.76-7.266 10.173-.003 1.736.435 2.048 2.246 1.598 3.811-.946 7.909-4.39 9.363-7.871 2.422-5.796 1.638-6.501-4.343-3.9M129.5 120c.34.55 1.379.993 2.309.985 1.457-.014 1.484-.15.191-.985-1.958-1.266-3.282-1.266-2.5 0m12.026 3.95c-.839 1.623-1.526 3.864-1.526 4.98 0 2.493 2.952 10.07 3.923 10.07 1.042 0 4.077-6.749 4.077-9.066 0-2.806-2.691-8.934-3.923-8.934-.564 0-1.712 1.328-2.551 2.95m-13.485 12.5c-2.129 2.566-2.469 9.822-.627 13.384 2.11 4.08 3.044 3.99 4.821-.466 1.643-4.119.913-10.648-1.455-13.016-1.269-1.27-1.614-1.257-2.739.098m21.709 2.208c-2.062.856-3.75 1.907-3.75 2.335 0 1.282 6.59 4.008 9.651 3.992 3.34-.017 7.514-1.947 8.108-3.749.446-1.351-5.471-4.271-8.477-4.184-.98.028-3.469.751-5.532 1.606m-84.527 4.899c-2.187 1.531-2.223 1.93-2.223 24.345 0 20.807.159 22.932 1.829 24.443 1.586 1.436 4.777 1.655 24.065 1.655 13.417 0 23.005-.411 24.172-1.035 2.734-1.463 2.564-6.41-.289-8.408-1.814-1.271-5.57-1.557-20.439-1.557H74.121l-.31-19.082c-.286-17.536-.468-19.198-2.252-20.5-2.476-1.808-3.592-1.784-6.336.139m120.218-.139c-1.784 1.302-1.966 2.964-2.252 20.5l-.31 19.082h-16.875c-9.28 0-17.99.424-19.353.943-3.292 1.251-4.239 4.51-2.211 7.606l1.606 2.451h22.322c20.355 0 22.468-.161 23.977-1.829 1.437-1.588 1.655-4.803 1.655-24.443 0-22.236-.037-22.641-2.223-24.171-2.744-1.923-3.86-1.947-6.336-.139m-51.53 10.453l-2.311 1.871 3.151 1.629c4.226 2.185 10.459 2.089 13.293-.206l2.266-1.834-2.378-1.666c-3.295-2.308-11.057-2.194-14.021.206" fill="#1976D2" fill-rule="evenodd"/><path fill-opacity=".979" d="M63.2 2.2c-.837.837-1.2 6.237-1.2 17.868v16.669l-7.566.486c-12.049.773-16.438 5.162-17.211 17.211L36.737 62H20.068C2.466 62 1 62.357 1 66.643 1 71.173 4.122 72 21.223 72H37v20l-15.25.015c-16.882.016-20.049.811-20.557 5.161C.612 102.152 3.529 103 21.223 103H37v20H21.223c-17.694 0-20.611.848-20.03 5.824.508 4.35 3.675 5.145 20.557 5.161L37 134v20H21.223C4.058 154 1 154.822 1 159.434c0 4.462 2.152 5.049 19.402 5.297l16.098.231.285 10.019L37.07 185H21.257C4.119 185 1 185.825 1 190.357 1 194.647 2.459 195 20.2 195H37v5.788c0 7.256 3.128 13.879 7.831 16.578 2.014 1.157 6.066 2.108 10.25 2.408l6.919.495v16.665c0 17.6.357 19.066 4.643 19.066 4.53 0 5.357-3.122 5.357-20.223V220h20l.015 15.25c.017 17.41.786 20.25 5.485 20.25s5.468-2.84 5.485-20.25L103 220h20l.015 15.25c.017 17.41.786 20.25 5.485 20.25s5.468-2.84 5.485-20.25L134 220h20v15.777c0 17.165.822 20.223 5.434 20.223 4.462 0 5.049-2.152 5.297-19.402l.231-16.098 10.019-.285L185 219.93v15.813c0 17.138.825 20.257 5.357 20.257 4.286 0 4.643-1.466 4.643-19.066v-16.665l6.919-.495c12.218-.874 16.981-5.637 17.855-17.855l.495-6.919h16.665c17.6 0 19.066-.357 19.066-4.643 0-4.532-3.119-5.357-20.257-5.357H219.93l.285-10.019.285-10.019 16.098-.231c17.25-.248 19.402-.835 19.402-5.297 0-4.612-3.058-5.434-20.223-5.434H220v-20l15.25-.015c17.41-.017 20.25-.786 20.25-5.485s-2.84-5.468-20.25-5.485L220 123v-20l15.25-.015c17.41-.017 20.25-.786 20.25-5.485s-2.84-5.468-20.25-5.485L220 92V72h15.777C252.878 72 256 71.173 256 66.643c0-4.286-1.466-4.643-19.066-4.643h-16.665l-.495-6.919c-.3-4.184-1.251-8.236-2.408-10.25-2.699-4.703-9.322-7.831-16.578-7.831H195V20.2c0-17.589-.377-19.215-4.45-19.185-4.796.036-5.031.866-5.366 18.981l-.317 17.073-9.952-.285-9.953-.284-.231-16.098C164.483 3.152 163.896 1 159.434 1 154.822 1 154 4.058 154 21.223V37h-20l-.015-15.25c-.016-16.882-.811-20.049-5.161-20.557C123.848.612 123 3.529 123 21.223V37h-20V21.223c0-17.694-.848-20.611-5.824-20.03-4.35.508-5.145 3.675-5.161 20.557L92 37H72V21.223c0-12.662-.307-16.217-1.557-18C68.75.805 65.109.291 63.2 2.2M49 49c-1.966 1.966-2 3.333-2 79.5s.034 77.534 2 79.5c1.966 1.966 3.333 2 79.309 2 65.183 0 77.613-.223 79.25-1.419 1.889-1.381 1.948-3.534 2.218-79.75l.278-78.331-2.139-1.75c-1.995-1.633-7.304-1.75-79.527-1.75-76.056 0-77.423.034-79.389 2m16 16c-1.878 1.878-2 3.333-2 23.929C63 112.57 63.306 114 68.371 114 72.715 114 73 112.665 73 92.3V73h19.429c16.329 0 19.679-.251 21-1.571 2.218-2.219 1.95-5.05-.652-6.872-1.846-1.294-5.908-1.557-24-1.557-20.444 0-21.899.122-23.777 2m80.75-.92c-2.01 1.171-2.349 5.921-.55 7.72.848.848 6.711 1.2 20 1.2H184v19.3c0 20.212.309 21.716 4.45 21.685 4.94-.037 5.03-.446 5.351-24.203.398-29.393 2.838-26.792-25.09-26.752-12.538.018-21.927.448-22.961 1.05M84.701 96.162c-5.545 3.626-5.109 4.811 1.881 5.115l4.918.214-.352 4.832c-.281 3.861.076 5.286 1.774 7.094 2.335 2.485 4.078 7.541 4.078 11.826 0 1.517.45 2.757 1 2.757s1-1.83 1-4.066c0-6.384 1.409-8.14 6.33-7.883 8.715.455 9.662.183 9.76-2.801.09-2.725.099-2.722 1.012.437.508 1.753 2.042 4.068 3.41 5.144 1.829 1.438 2.488 2.912 2.488 5.563 0 5.002 1.687 4.532 2.311-.644.281-2.338.757-5.375 1.056-6.75.299-1.375.842-4.3 1.208-6.5.549-3.306.805-3.653 1.474-2 .597 1.472.825.812.865-2.5.091-7.375-.033-7.437-16.125-8.002-12.477-.439-14.772-.788-18.096-2.75-2.094-1.237-4.119-2.243-4.5-2.236-.381.006-2.853 1.424-5.492 3.15m9.427 1.511c1.224 1.494 1.124 1.61-.935 1.079-1.999-.515-2.135-.387-1.015.962.71.856 1.299 2.059 1.307 2.672.008.612.465 1.226 1.015 1.364.55.138 1-.312 1-1 0-.687.589-1.625 1.308-2.082 1.012-.644.807-1.267-.903-2.75-2.725-2.364-3.616-2.486-1.777-.245m67.423 18.284c-3.421 2.255-6.449 7.422-6.509 11.106-.024 1.487-1.268 3.737-2.962 5.36l-2.919 2.797.528-3.937c.512-3.815-2.156-11.218-4.584-12.718-1.463-.904-5.96 5.146-6.681 8.988-.501 2.67-.044 4.727 1.937 8.721l2.592 5.226-3.977 3.985-3.976 3.986-.004-4.986c-.003-4.904-2.817-11.485-4.91-11.485-1.422 0-4.137 3.004-5.17 5.72-1.475 3.879-1.069 7.911 1.282 12.751l2.198 4.525-3.394 3.502c-4.176 4.309-2.815 4.682 1.571.431l3.169-3.071 3.864 2.071c5.167 2.769 11.188 2.684 15.496-.219 1.869-1.259 3.398-2.704 3.398-3.21 0-2.167-6.884-5.5-11.36-5.5h-4.565l4.963-5.078c7.939-8.125 12.927-9.693 20.061-6.308 4.045 1.92 4.215 2.806.949 4.946-3.235 2.12-10.672 2.06-13.987-.112-1.443-.945-2.878-1.464-3.189-1.153-.311.311 1.356 1.546 3.704 2.744 3.032 1.547 5.365 2.031 8.05 1.671 4.232-.568 10.159-4.302 9.623-6.063-.192-.631-2.351-2.179-4.799-3.441-3.303-1.702-5.352-2.13-7.95-1.661l-3.5.632 2.398-2.561c1.319-1.408 4.779-3.252 7.689-4.098 6.046-1.758 9.29-5.378 10.436-11.643l.708-3.875-3.615.007c-1.989.003-4.943.881-6.565 1.95m1.205.612c-2.736 1.484-6.756 7.965-6.756 10.891 0 2.247 3.833 1.912 7.593-.664 5.979-4.097 8.716-11.837 4.157-11.756-1.238.022-3.485.71-4.994 1.529M115.5 118c.34.55.816 1 1.059 1s.441-.45.441-1-.477-1-1.059-1-.781.45-.441 1m26.026 4.95c-.839 1.623-1.526 4.593-1.526 6.599 0 3.607 2.573 10.451 3.929 10.451 1.351 0 4.071-7.103 4.071-10.63 0-3.45-2.647-9.37-4.19-9.37-.417 0-1.445 1.328-2.284 2.95m-14.912 15.451c-.888 1.871-1.604 4.233-1.592 5.25.025 2.082 3.575 10.349 4.444 10.349 1.378 0 4.527-6.81 4.53-9.8.005-3.952-2.51-9.2-4.408-9.2-.748 0-2.086 1.531-2.974 3.401m-62.579 6.533c-.622 1.162-1.035 10.547-1.035 23.5 0 20.233.124 21.69 2 23.566 1.878 1.878 3.333 2 23.889 2 19.997 0 22.092-.164 24.23-1.895 2.014-1.631 2.201-2.294 1.338-4.75l-1.004-2.855-20.226-.271-20.227-.27v-19.28c0-13.661-.35-19.629-1.2-20.479-1.901-1.901-6.592-1.458-7.765.734M185.2 144.2c-.85.85-1.2 6.822-1.2 20.5V184h-18.8c-13.289 0-19.152.352-20 1.2-1.901 1.901-1.458 6.592.734 7.765 1.158.619 10.391 1.035 23 1.035 19.733 0 21.193-.127 23.066-2 1.878-1.878 2-3.333 2-23.845 0-19.893-.163-21.993-1.829-23.5-2.148-1.944-5.278-2.148-6.971-.455m-50.2 8.552c-4.25 2.123-4.227 3.121.124 5.454 4.365 2.341 8.589 2.266 12.675-.225 3.751-2.287 3.432-3.569-1.389-5.583-4.42-1.847-7.177-1.761-11.41.354" fill="#1976D2" fill-rule="evenodd"/></svg>